<?xml version="1.0" encoding="UTF-8"?><svg id="Layer_2" xmlns="http://www.w3.org/2000/svg" viewBox="0 0 592.05 861"><defs><style>.cls-1{fill:#dfebf6;}.cls-2{fill:#768a96;}.cls-3{fill:#29353c;}.cls-3,.cls-4{font-family:SourceSerifVariable-Roman, 'Source Serif Variable';font-size:354.33px;font-variation-settings:'wght' 389;}.cls-5{fill:none;stroke:#768a96;stroke-linecap:round;stroke-miterlimit:10;stroke-width:14.17px;}.cls-6{letter-spacing:-.02em;}.cls-7,.cls-4{fill:#44576d;}.cls-8{fill:#e6e6e6;}</style></defs><g id="Layer_1-2"><rect class="cls-1" width="582.11" height="846" rx="24.56" ry="24.56"/><rect class="cls-8" x="9.94" y="15" width="582.11" height="846" rx="24.56" ry="24.56"/><circle class="cls-7" cx="63" cy="220.91" r="25"/><circle class="cls-7" cx="63" cy="362.58" r="25"/><circle class="cls-7" cx="63" cy="542.12" r="25"/><circle class="cls-7" cx="63" cy="664.09" r="25"/><line class="cls-5" x1="142" y1="800" x2="541" y2="800"/><line class="cls-5" x1="142" y1="715" x2="541" y2="715"/><text class="cls-3" transform="translate(191.81 573.94)"><tspan class="cls-6" x="0" y="0">S</tspan><tspan x="173.62" y="0">f</tspan></text><text class="cls-4" transform="translate(184.12 572.16)"><tspan class="cls-6" x="0" y="0">S</tspan><tspan x="173.62" y="0">f</tspan></text><line class="cls-5" x1="142" y1="163" x2="541" y2="163"/><line class="cls-5" x1="142" y1="78" x2="541" y2="78"/><circle class="cls-2" cx="67.55" cy="225.99" r="25"/><circle class="cls-2" cx="67.55" cy="367.65" r="25"/><circle class="cls-2" cx="67.55" cy="547.2" r="25"/><circle class="cls-2" cx="67.55" cy="669.17" r="25"/></g></svg>